<svg xmlns="http://www.w3.org/2000/svg" width="268" height="57" viewBox="0 0 268 57"><g id="Page-1" fill="none" fill-rule="evenodd"><g id="logo" fill="#006BD9"><path id="Fill-9" d="M86.9098 40.7254c1.5166-1.7839 2.2753-4.0396 2.2753-6.7664s-.7587-4.9818-2.2753-6.7672c-1.593-1.8609-3.6592-2.7993-6.195-2.8234-2.5358.0241-4.602.9625-6.195 2.8234-1.451 1.7084-2.2006 3.8517-2.2632 6.4222v.6892c.0626 2.5706.8123 4.7153 2.2633 6.4222 1.5929 1.8617 3.6591 2.7993 6.195 2.8235 2.5357-.0242 4.602-.9618 6.1949-2.8235zm-6.158-19.795c3.6357 0 6.5807 1.2623 8.8372 3.7875 2.255 2.4913 3.3836 5.5721 3.3836 9.2411 0 3.6697-1.1286 6.7498-3.3836 9.241-2.2082 2.471-5.1675 3.7294-8.8742 3.7823-3.4832-.0498-6.2976-1.1777-8.4582-3.3632v2.9638h-3.7868V34.2708c-.0022-.105-.0128-.2061-.0128-.3118 0-.1064.0106-.2069.0128-.3118V14.9755c0-1.6533 1.3393-2.9925 2.9918-2.9925h.795v12.2918c2.1983-2.2293 5.0052-3.3444 8.4212-3.3444.012 0 .0242.0008.037.0008.012 0 .0242-.0008.037-.0008zm32.5588 19.795c1.5166-1.7839 2.2753-4.0396 2.2753-6.7664s-.7587-4.9818-2.2753-6.7672c-1.593-1.8609-3.6592-2.7993-6.195-2.8234-2.5358.0241-4.602.9625-6.195 2.8234-1.5166 1.7854-2.2753 4.0404-2.2753 6.7672s.7587 4.9825 2.2753 6.7664c1.593 1.8617 3.6592 2.7993 6.195 2.8235 2.5358-.0242 4.602-.9618 6.195-2.8235zm-6.158-19.795c3.6357 0 6.5807 1.2623 8.8372 3.7875 2.255 2.4913 3.3836 5.5721 3.3836 9.2411 0 3.6697-1.1286 6.7498-3.3836 9.241-2.2082 2.471-5.1675 3.7294-8.8742 3.7823-3.7067-.0529-6.666-1.3113-8.8742-3.7822-2.255-2.4913-3.3836-5.5714-3.3836-9.2411 0-3.669 1.1286-6.7498 3.3836-9.2411 2.2557-2.5252 5.2015-3.7875 8.8372-3.7875.012 0 .0242.0008.037.0008.012 0 .0242-.0008.037-.0008zm32.6775 14.947V21.3335h3.7875V46.583H139.83v-3.9385c-.909 1.2117-2.0202 2.2392-3.333 3.0802-1.3128.8417-2.8114 1.2622-4.4949 1.2622-1.6835 0-3.13-.2355-4.3423-.7066-1.2117-.4711-2.2724-1.1785-3.1813-2.1214-2.0874-2.0526-3.1307-4.7636-3.1307-8.1298V24.326c0-1.6525 1.34-2.9925 2.9926-2.9925h.7949V35.928c0 2.323.656 4.1748 1.9696 5.5548 1.3128 1.3808 3.0122 2.07 5.1003 2.07 2.1206 0 3.9211-.7066 5.403-2.1206 1.4812-1.4472 2.2218-3.299 2.2218-5.5548zm22.9428-14.2401c1.2116.4718 2.2723 1.1792 3.1812 2.1206 2.0867 2.0541 3.1307 4.7643 3.1307 8.1306v14.6947h-3.7875V31.9896c0-2.323-.656-4.174-1.9688-5.5555-1.3136-1.3793-3.0137-2.07-5.101-2.07-2.1207 0-3.922.7073-5.4031 2.1213-1.482 1.4472-2.2218 3.299-2.2218 5.5548v14.543h-3.7874V24.327c0-1.6533 1.34-2.9926 2.9925-2.9926h.795v3.9385c.9089-1.2117 2.0201-2.2384 3.333-3.0801 1.3128-.841 2.8106-1.263 4.4948-1.263 1.682 0 3.13.2363 4.3424.7074zm27.1792 19.0881c1.5167-1.7839 2.2754-4.0396 2.2754-6.7664s-.7587-4.9818-2.2754-6.7672c-1.5929-1.8609-3.6591-2.7993-6.195-2.8234-2.5357.0241-4.602.9625-6.1949 2.8234-1.5166 1.7854-2.2753 4.0404-2.2753 6.7672s.7587 4.9825 2.2753 6.7664c1.593 1.8617 3.6592 2.7993 6.195 2.8235 2.5358-.0242 4.602-.9618 6.195-2.8235zm2.7646-25.7499c0-1.6533 1.3392-2.9925 2.9918-2.9925h.795v34.6h-3.7868v-3.4863c-.0302.034-.0551.0694-.0853.1034-2.2082 2.4709-5.1675 3.7293-8.8742 3.7822-3.7067-.0529-6.666-1.3113-8.8742-3.7822-2.255-2.4913-3.3829-5.5714-3.3829-9.2411 0-3.669 1.128-6.7498 3.3829-9.2411 2.2557-2.5252 5.2014-3.7875 8.8372-3.7875.012 0 .0241.0008.037.0008.012 0 .0241-.0008.037-.0008 3.6357 0 6.5807 1.2623 8.8372 3.7875.0302.0332.055.0695.0853.1027v-9.845zm24.9632 25.75c1.5167-1.784 2.2754-4.0397 2.2754-6.7665s-.7587-4.9818-2.2754-6.7672c-1.5929-1.8609-3.6591-2.7993-6.195-2.8234-2.5357.0241-4.602.9625-6.1949 2.8234-1.5166 1.7854-2.2753 4.0404-2.2753 6.7672s.7587 4.9825 2.2753 6.7664c1.593 1.8617 3.6592 2.7993 6.195 2.8235 2.5358-.0242 4.602-.9618 6.195-2.8235zm2.7638-15.905v-3.4862h3.7875V46.583h-3.7875v-3.4862c-.0294.034-.0543.0694-.0845.1034-2.2082 2.4709-5.1675 3.7293-8.8742 3.7822-3.7067-.0529-6.666-1.3113-8.8742-3.7822-2.255-2.4913-3.3836-5.5714-3.3836-9.2411 0-3.669 1.1286-6.7498 3.3836-9.2411 2.2557-2.5252 5.2015-3.7875 8.8372-3.7875.012 0 .0242.0008.037.0008.012 0 .0241-.0008.037-.0008 3.6357 0 6.5807 1.2623 8.8372 3.7875.0302.0332.0551.0695.0845.1027zm16.5695-3.0822c1.1105-.5383 2.4573-.8078 4.0397-.8078h.2529v3.7875h-.4545c-2.7276 0-4.9493 1.0939-6.666 3.2817-1.6156 2.088-2.4241 4.5794-2.4241 7.4738V46.583h-3.7867V21.3344h3.7867v6.2115c.8085-2.6264 2.5584-4.562 5.252-5.8076zm26.8428-.808h3.767L252.9179 54.422a2.9928 2.9928 0 0 1-2.7389 1.7854h-1.7643l4.2208-9.6035-10.1017-25.6736h3.8177l8.3042 21.4822 9.2004-21.4822z"/><path id="Fill-19" d="M31.1825 5.1118c-.3925-.213-.536-.7029-.323-1.0947.212-.3933.702-.536 1.0946-.3238.3925.2129.536.702.323 1.0954a.8081.8081 0 0 1-.711.425.7765.7765 0 0 1-.3836-.102m-12.2147-.286c-.2175-.3934-.074-.8878.3185-1.1.3926-.2174.8825-.074 1.1.3186a.8122.8122 0 0 1-.3239 1.0992.8066.8066 0 0 1-.388.0974c-.2861 0-.5587-.148-.7066-.4152m18.165 3.5247c-.3925-.2129-.5405-.7028-.323-1.0954.2121-.3925.702-.536 1.0946-.323.3926.212.536.702.3231 1.0946a.8067.8067 0 0 1-.7111.425.7755.7755 0 0 1-.3835-.1012m-24.102-.2634c-.2166-.388-.0731-.8826.3194-1.0954.3926-.2167.8818-.074 1.0992.3193a.8146.8146 0 0 1-.3186 1.0992.8433.8433 0 0 1-.388.0966.8126.8126 0 0 1-.712-.4197m30.0478 3.5013c-.388-.2121-.536-.702-.3231-1.0946a.8131.8131 0 0 1 1.0992-.3239c.3925.2129.536.7028.3238 1.0954a.8095.8095 0 0 1-.7119.425.7976.7976 0 0 1-.388-.1019M7.095 11.3528c-.213-.388-.0695-.8825.3186-1.0992.3925-.2129.8825-.0694 1.0999.3186.2167.3925.0732.887-.3193 1.0992a.7955.7955 0 0 1-.388.1019.8121.8121 0 0 1-.7112-.4205m41.934 3.4742c-.3925-.2122-.536-.7021-.323-1.0947.212-.3925.7066-.536 1.0991-.323.388.212.536.7065.3231 1.0946a.8058.8058 0 0 1-.7111.425.7976.7976 0 0 1-.388-.102m-47.8664-.2075c-.2166-.3926-.074-.8826.3194-1.1.388-.2121.8817-.0687 1.0946.3239.2167.388.074.878-.3193 1.0946-.12.0695-.2537.1012-.3873.1012a.8115.8115 0 0 1-.7074-.4197m48.545 5.7427a.8066.8066 0 0 1 .8086-.8085c.4439 0 .804.36.804.8085 0 .4477-.3601.8085-.804.8085a.807.807 0 0 1-.8086-.8085m-49.5286.2393a.806.806 0 0 1 .8085-.8078c.4431 0 .8085.3602.8085.8078 0 .444-.3654.8086-.8085.8086-.4484 0-.8085-.3647-.8085-.8086m49.5286 6.5377c0-.4477.3609-.813.8086-.813.4439 0 .804.3653.804.813 0 .4432-.3601.8085-.804.8085-.4477 0-.8086-.3653-.8086-.8085m-49.5286.2356a.8061.8061 0 0 1 .8085-.8086c.4431 0 .8085.3601.8085.8086 0 .4476-.3654.8085-.8085.8085a.8066.8066 0 0 1-.8085-.8085m49.5286 6.5369a.8066.8066 0 0 1 .8086-.8085c.4439 0 .804.36.804.8085 0 .4439-.3601.8085-.804.8085-.4477 0-.8086-.3646-.8086-.8085M.1791 34.147c0-.4431.36-.8085.8085-.8085.4431 0 .8085.3654.8085.8085 0 .4485-.3654.8086-.8085.8086a.8061.8061 0 0 1-.8085-.8086m49.5286 6.5377a.8066.8066 0 0 1 .8086-.8085c.4439 0 .804.36.804.8085 0 .4432-.3601.8085-.804.8085-.4477 0-.8086-.3653-.8086-.8085m-49.5286.24a.8061.8061 0 0 1 .8085-.8084c.4431 0 .8085.36.8085.8085 0 .4431-.3654.8078-.8085.8078-.4484 0-.8085-.3647-.8085-.8078m49.5286 6.5316c0-.4431.3609-.8085.8086-.8085.4439 0 .804.3654.804.8085 0 .4485-.3601.8086-.804.8086a.8066.8066 0 0 1-.8086-.8086m-49.5286.2409a.8061.8061 0 0 1 .8085-.8086c.4431 0 .8085.3601.8085.8086 0 .4476-.3654.8085-.8085.8085a.8066.8066 0 0 1-.8085-.8085m1.1731 5.9873c0-.4439.3609-.8085.8086-.8085.4484 0 .8085.3646.8085.8085a.8066.8066 0 0 1-.8085.8085.807.807 0 0 1-.8086-.8085m6.7733 0c0-.4439.3646-.8085.8077-.8085.4485 0 .8086.3646.8086.8085a.8066.8066 0 0 1-.8086.8085c-.4431 0-.8077-.3608-.8077-.8085m6.777 0c0-.4439.36-.8085.8085-.8085.4431 0 .8085.3646.8085.8085 0 .4477-.3654.8085-.8085.8085a.8066.8066 0 0 1-.8085-.8085m6.7724 0c0-.4439.3601-.8085.8086-.8085.4476 0 .8085.3646.8085.8085a.807.807 0 0 1-.8085.8085.8066.8066 0 0 1-.8086-.8085m6.7725 0c0-.4439.3609-.8085.8085-.8085.4485 0 .8086.3646.8086.8085a.8066.8066 0 0 1-.8086.8085.807.807 0 0 1-.8085-.8085m6.7732 0c0-.4439.3647-.8085.8086-.8085.4476 0 .8085.3646.8085.8085a.807.807 0 0 1-.8085.8085c-.444 0-.8086-.3608-.8086-.8085m6.777 0c0-.4439.3609-.8085.8086-.8085.4431 0 .804.3646.804.8085 0 .4477-.3609.8085-.804.8085a.807.807 0 0 1-.8086-.8085m7.581-.8085c.444 0 .8086.3646.8086.8085 0 .4477-.3647.8085-.8086.8085a.807.807 0 0 1-.8085-.8085c0-.4439.3609-.8085.8085-.8085zM26.189.5933c.037.037.074.0785.1011.1246a.5016.5016 0 0 1 .074.1389c.0234.046.037.0974.0468.1472a.665.665 0 0 1 .0182.1623c0 .1057-.0235.2076-.0604.3095a.7803.7803 0 0 1-.1797.259.6192.6192 0 0 1-.12.1011.69.69 0 0 1-.139.074.6418.6418 0 0 1-.1525.046.6205.6205 0 0 1-.157.019.7932.7932 0 0 1-.573-.2401.8393.8393 0 0 1-.1751-.259c-.0415-.0974-.0604-.2038-.0604-.3095a.9133.9133 0 0 1 .0143-.1623c.0091-.0498.0272-.1012.046-.1472a.9647.9647 0 0 1 .074-.139c.0325-.046.0642-.0875.1012-.1245.3005-.3005.841-.3005 1.1415 0z"/><path id="Fill-23" d="M29.635 11.3757c-.6696-.3647-.9194-1.2057-.554-1.8806.3691-.6696 1.2101-.9187 1.8797-.554.6742.3698.924 1.21.5549 1.8804a1.3829 1.3829 0 0 1-1.2154.7263c-.2265 0-.4522-.0566-.6651-.1721m-9.8496-.5217c-.3692-.6704-.1246-1.5159.5496-1.885.6704-.37 1.5106-.1246 1.8805.545.3692.6742.1246 1.5151-.545 1.8843a1.3971 1.3971 0 0 1-.6704.1714 1.392 1.392 0 0 1-1.2147-.7157m14.5014 3.0537c-.6696-.3654-.9195-1.2064-.554-1.876.3646-.6742 1.21-.9233 1.8804-.5587.6742.3692.9188 1.2102.5542 1.8798-.25.4628-.7255.7255-1.22.7255-.2212 0-.4477-.0551-.6606-.1706m-19.1397-.5035c-.37-.6704-.1246-1.5107.545-1.8806.6697-.3691 1.5152-.1253 1.8851.545.3692.6697.1246 1.5152-.545 1.8806a1.3603 1.3603 0 0 1-.6704.1752c-.4892 0-.9603-.259-1.2147-.7202m23.7924 3.0348c-.6697-.3647-.9195-1.2057-.5549-1.8806.3654-.6696 1.2109-.9187 1.8805-.554.6704.3698.9195 1.21.5541 1.8805a1.38 1.38 0 0 1-1.2146.7254c-.2265 0-.453-.0558-.6651-.1713m4.6518 2.5365c-.6741-.3699-.9195-1.2101-.554-1.8805.3646-.6741 1.2055-.9233 1.8797-.5586.6704.3691.9195 1.2101.5549 1.8797-.25.462-.7255.7255-1.22.7255-.222 0-.4477-.055-.6606-.166M5.8661 18.509c-.37-.6689-.1246-1.5106.545-1.8805.675-.3692 1.5152-.1246 1.8844.545.3699.6696.1253 1.516-.5443 1.885a1.4048 1.4048 0 0 1-.6704.1707c-.49 0-.961-.2574-1.2147-.7202m37.6974 4.2268c0-.767.619-1.386 1.386-1.386.767 0 1.3861.619 1.3861 1.386 0 .7625-.619 1.3816-1.386 1.3816-.767 0-1.386-.619-1.386-1.3816m-38.3996.1805c0-.7625.6236-1.3816 1.3853-1.3816.767 0 1.386.619 1.386 1.3816 0 .7662-.619 1.386-1.386 1.386-.7617 0-1.3853-.6198-1.3853-1.386m38.3995 5.1146c0-.7678.619-1.3868 1.386-1.3868.767 0 1.3861.619 1.3861 1.3868 0 .7617-.619 1.3853-1.386 1.3853-.767 0-1.386-.6236-1.386-1.3853m-38.3996.1842c0-.767.6236-1.386 1.3853-1.386.767 0 1.386.619 1.386 1.386 0 .767-.619 1.386-1.386 1.386-.7617 0-1.3853-.619-1.3853-1.386m38.3995 5.1094c0-.767.619-1.386 1.386-1.386.767 0 1.3861.619 1.3861 1.386 0 .767-.619 1.386-1.386 1.386a1.384 1.384 0 0 1-1.386-1.386m-38.3996.185c0-.767.6236-1.3861 1.3853-1.3861.767 0 1.386.619 1.386 1.386 0 .767-.619 1.386-1.386 1.386-.7617 0-1.3853-.619-1.3853-1.386m38.3995 5.1147c0-.767.619-1.3914 1.386-1.3914.767 0 1.3861.6244 1.3861 1.3914 0 .7625-.619 1.3853-1.386 1.3853-.767 0-1.386-.6228-1.386-1.3853m-38.3996.1842c0-.767.6236-1.386 1.3853-1.386.767 0 1.386.619 1.386 1.386 0 .7625-.619 1.386-1.386 1.386-.7617 0-1.3853-.6235-1.3853-1.386m38.3995 5.1094c0-.7663.619-1.3853 1.386-1.3853.767 0 1.3861.619 1.3861 1.3853 0 .767-.619 1.386-1.386 1.386a1.384 1.384 0 0 1-1.386-1.386m-38.3996.185c0-.7671.6236-1.3861 1.3853-1.3861.767 0 1.386.619 1.386 1.386 0 .767-.619 1.3868-1.386 1.3868-.7617 0-1.3853-.6198-1.3853-1.3868m37.8363 4.9712c-.074-.7625.4847-1.4366 1.2472-1.5098.7625-.0748 1.4366.4839 1.5106 1.2463.074.7618-.4847 1.4367-1.2472 1.5107-.046.0045-.0883.009-.1343.009-.7066 0-1.3068-.5352-1.3763-1.2562m-37.079-.1298c0-.7618.619-1.3853 1.386-1.3853.767 0 1.386.6235 1.386 1.3853 0 .7677-.619 1.386-1.386 1.386-.767 0-1.386-.6183-1.386-1.386m5.2942 0c0-.7618.6236-1.3853 1.386-1.3853.767 0 1.3861.6235 1.3861 1.3853 0 .7677-.619 1.386-1.386 1.386-.7625 0-1.386-.6183-1.386-1.386m5.2988 0c0-.7618.619-1.3853 1.386-1.3853.7625 0 1.386.6235 1.386 1.3853 0 .7677-.6235 1.386-1.386 1.386-.767 0-1.386-.6183-1.386-1.386m5.2943 0c0-.7618.619-1.3853 1.386-1.3853.767 0 1.3861.6235 1.3861 1.3853 0 .7677-.619 1.386-1.386 1.386-.767 0-1.386-.6183-1.386-1.386m5.2942 0c0-.7618.6236-1.3853 1.386-1.3853.767 0 1.3861.6235 1.3861 1.3853 0 .7677-.619 1.386-1.386 1.386-.7625 0-1.386-.6183-1.386-1.386m5.2988 0c0-.7618.619-1.3853 1.386-1.3853.7625 0 1.386.6235 1.386 1.3853 0 .7677-.6235 1.386-1.386 1.386-.767 0-1.386-.6183-1.386-1.386m6.6804-1.3853c.767 0 1.386.6235 1.386 1.3853 0 .7677-.619 1.386-1.386 1.386a1.3835 1.3835 0 0 1-1.3853-1.386c0-.7618.619-1.3853 1.3853-1.3853zM26.628 6.6499c.0641.0604.1245.1336.1751.2076.046.0785.0921.157.1246.2408.037.083.0604.1706.0785.2582.0188.0883.0279.1804.0279.2725 0 .3654-.148.721-.4061.98a1.3935 1.3935 0 0 1-.98.406 1.389 1.389 0 0 1-.979-.406 1.3929 1.3929 0 0 1-.407-.98c0-.092.009-.1842.028-.2725a1.6167 1.6167 0 0 1 .0784-.2582 1.7222 1.7222 0 0 1 .1291-.2408c.0514-.074.1065-.1472.1714-.2076.5171-.5172 1.4412-.5172 1.959 0z"/><path id="Path" d="M10.509 16.033c-.37-.6946-.1254-1.5706.545-1.953.6704-.3787 1.5106-.1291 1.8805.5693.3692.6946.1246 1.5651-.545 1.9484-.213.1189-.4394.1776-.6651.1776-.49 0-.9664-.2683-1.2155-.7423"/><path id="Fill-25" d="M14.873 40.2562h21.8922v-15.929l-11.0084-5.992L14.873 24.322v15.9343zm22.931 2.9608H13.8342c-1.0606 0-1.922-.9233-1.922-2.0572V23.8146c0-.678.3065-1.3106.8221-1.6918l.1729-.1118L25.75 14.9464l13.1426 7.1696c.5224.3804.8335 1.0161.8335 1.7v17.3438c0 1.134-.8614 2.0572-1.9221 2.0572z"/></g></g></svg>